<svg id="visual" viewBox="0 0 3024 1964" width="3024" height="1964" xmlns="http://www.w3.org/2000/svg" xmlns:xlink="http://www.w3.org/1999/xlink" version="1.1"><path d="M1317 0L1355.3 81.8C1393.7 163.7 1470.3 327.3 1475.2 491C1480 654.7 1413 818.3 1438.3 982C1463.7 1145.7 1581.3 1309.3 1634.3 1473C1687.3 1636.7 1675.7 1800.3 1669.8 1882.2L1664 1964L0 1964L0 1882.2C0 1800.3 0 1636.7 0 1473C0 1309.3 0 1145.7 0 982C0 818.3 0 654.7 0 491C0 327.3 0 163.7 0 81.8L0 0Z" fill="#1c3678" stroke-linecap="round" stroke-linejoin="miter"></path></svg>